<svg xmlns="http://www.w3.org/2000/svg" viewBox="0 0 200 200">
  <g transform="translate(0,200) scale(0.1,-0.1)" fill="currentColor" stroke="none">
    <path d="M340 1421 c-19 -36 -11 -101 20 -165 57 -117 110 -153 265 -180 78
-13 93 -19 114 -44 22 -27 62 -159 91 -297 28 -134 135 -205 241 -161 73 31
105 78 119 177 6 39 14 78 19 87 5 9 11 37 15 62 7 47 38 109 62 123 8 4 14
17 14 27 0 11 3 20 8 21 4 0 16 2 27 4 11 1 47 5 81 9 75 7 141 34 174 72 89
101 123 207 84 262 -32 46 -73 19 -93 -61 -23 -96 -64 -139 -153 -162 -51 -12
-76 -14 -100 -7 -18 6 -52 14 -75 17 -24 4 -46 11 -49 16 -3 5 -27 20 -52 32
-37 17 -65 22 -133 22 -78 0 -92 -3 -160 -36 -99 -49 -168 -64 -222 -51 -23 6
-58 14 -77 18 -39 8 -90 42 -90 61 0 7 -4 13 -8 13 -9 0 -32 59 -32 84 0 9 -7
30 -15 46 -18 35 -58 41 -75 11z"/>
  </g>
</svg>
